<svg width="255" height="253" viewBox="0 0 255 253" fill="none" xmlns="http://www.w3.org/2000/svg">
<path fill-rule="evenodd" clip-rule="evenodd" d="M73.5974 0.0964355H181.407C221.893 0.0964355 255 32.7938 255 72.7384V180.257C255 220.211 221.893 252.899 181.407 252.899H73.5974C33.1117 252.899 0 220.211 0 180.257V72.7384C0 32.7938 33.1114 0.0964355 73.5974 0.0964355ZM126.813 58.244C166.155 58.244 198.081 90.1696 198.081 129.512C198.081 168.859 166.155 200.779 126.813 200.779C87.4614 200.779 55.5406 168.859 55.5406 129.512C55.5406 90.1696 87.4614 58.244 126.813 58.244V58.244ZM126.813 82.3152C152.866 82.3152 174.01 103.455 174.01 129.512C174.01 155.569 152.865 176.713 126.813 176.713C100.751 176.713 79.6118 155.569 79.6118 129.512C79.6118 103.455 100.751 82.3152 126.813 82.3152ZM195.761 48.3663C202.152 48.3663 207.333 53.5476 207.333 59.9338C207.333 66.3247 202.152 71.506 195.761 71.506C189.375 71.506 184.193 66.3247 184.193 59.9338C184.193 53.5476 189.375 48.3663 195.761 48.3663V48.3663ZM82.4068 20.7467H172.607C206.476 20.7467 234.176 48.3098 234.176 81.9913V172.643C234.176 206.324 206.477 233.882 172.607 233.882H82.4068C48.5377 233.882 20.8335 206.324 20.8335 172.643V81.9905C20.8335 48.3098 48.5377 20.7467 82.4068 20.7467V20.7467Z" fill="#FFFCFC"/>
</svg>
