<svg width="480" height="480" viewBox="0 0 480 480" fill="none" xmlns="http://www.w3.org/2000/svg">
<path fill-rule="evenodd" clip-rule="evenodd" d="M418.478 0H61.519C27.718 0 0 27.721 0 61.521V418.478C0 452.278 27.718 480 61.519 480H418.478C452.281 480 480 452.278 480 418.479V61.521C480 27.721 452.281 0 418.478 0ZM399 327.98C399 328.016 398.936 328.016 398.936 328.039C396.215 331.825 392.248 333.146 389.594 334.285C389.521 334.292 389.428 334.328 389.356 334.365C382.192 336.919 374.648 339.892 366.288 340.865C366.11 340.88 365.91 340.88 365.74 340.88C363.244 340.851 361.049 341.468 359.757 342.708C356.913 345.958 355.952 351.182 354.19 356.985C354.102 357.268 353.975 357.507 353.835 357.761C354.31 356.956 354.038 357.413 353.759 358.414C353.628 358.914 353.436 359.582 352.765 360.452C352.086 361.265 350.711 362.128 349.452 362.295C349.108 362.324 348.785 362.427 348.451 362.398C338.853 361.107 329.138 361 319.479 361C319.431 361 319.377 361 319.312 361C314.055 361 309.333 361.173 305.52 362.536C305.502 362.536 305.484 362.508 305.469 362.508C293.792 367.651 283.127 375.809 271.128 382.621C271.059 382.649 270.997 382.807 270.896 382.843C265.592 386.217 259.52 388 253.245 389C253.206 389 253.155 389 253.118 389C245.791 389 238.286 390 230.654 389C230.617 389 231.002 389 231.002 389V389.277C220.002 388.951 212.002 384.293 204.002 379.541V379.562C204.002 379.541 204.028 379.715 204.002 379.715C192.607 372.838 182.53 365 170.872 362C170.864 362 170.864 362 170.85 362C159.746 359 147.646 360.875 135.519 362.979C135.399 363.015 135.269 362.91 135.127 362.924C134.84 362.945 133.026 364.018 129.73 363.321C128.33 363.038 127.118 361.894 126.722 360.545C125.224 355.626 124.629 350.92 123.356 346.936C122.446 344.768 122.036 343.441 121.854 343.122C117.933 341.461 113.109 340.818 107.9 339.636C107.864 339.636 107.831 339.635 107.813 339.614C100.565 337.778 92.654 335.985 85.391 331.85C85.326 331.791 85.264 331.776 85.203 331.74C84.054 331.116 82.722 330.275 81.521 328.845C80.262 327.328 79.257 324.594 80.135 322.047C80.247 321.721 80.396 321.431 80.585 321.148C83.243 317.172 87.426 316.758 89.196 316.084C89.304 316.041 89.428 315.982 89.548 315.954C98.167 313.654 106.554 309.903 113.885 304.904C127.854 295.319 139 282.217 147 267.119V267.098C150 261.439 151.882 255.477 150.697 250.363C149.775 246.343 145.563 243.001 140.848 241.001C140.848 241.001 140.84 241.001 140.819 241.001C134.021 239.001 126.212 236.392 119.145 231.677C119.069 231.622 119.01 231.621 118.949 231.581C118.1 230.925 116.736 230.135 115.311 228.888C113.863 227.661 112.242 225.731 111.745 223.126C111.727 223.105 111.745 223.072 111.727 223.036C111.69 222.805 111.654 222.531 111.672 222.27C111.831 217.844 115.013 215.285 117.327 213.783C117.392 213.732 117.446 213.697 117.509 213.642C117.545 213.627 117.599 213.58 117.636 213.562C120.472 211.451 124.191 210.385 127.995 211.245C128.067 211.263 128.133 211.157 128.194 211.186C132.09 212.26 135.54 214 138.772 214C138.801 214 138.827 214 138.841 214C143.564 215 148.333 215.296 152.708 214.512C152.763 214.309 152.666 214.276 152.738 213.939C153.635 205 153 195.631 152 185.921V185.902C151 172.074 150.834 157.151 156.399 143.128C156.399 143.103 156.447 143.063 156.469 143.037C162.284 129.431 171.576 117.221 183.355 108.043C199.073 95.731 219.145 90.599 238.545 90.485C243.319 90.421 248.144 91 253.008 91C253.008 91 253.027 91 253.044 91C267.376 92 281.501 97.015 293.381 105.351C309.741 116.872 322.654 134.183 326.34 154.268C326.34 154.308 326.223 154.392 326.24 154.439C327.93 166.355 328 178.195 327 189.679C327 189.694 327 189.711 327 189.719C327 197.293 326.554 205 326.797 212H326.757C326.892 213 326.909 213.945 326.946 214.402C330.196 215.591 334.379 215.329 338.68 214.571C338.764 214.556 338.826 214.49 338.898 214.484C341.923 214.125 345.192 212.461 349.189 211.238C349.21 211.238 349.24 211 349.269 211C349.269 211 349.276 211 349.287 211C352.987 210 357.271 210 360.932 212H360.95C363.152 214 366.001 215.517 368.001 218.978C368.001 218.978 368.001 218.985 368.001 218.999C369.001 220.683 368.652 222.565 368.265 224.092C368.127 224.597 367.909 225.039 367.713 225.439C366.893 227.085 365.769 228.188 364.865 229.041C364.853 229.066 364.802 229.085 364.785 229.124C358.919 234.243 351.821 236.854 345.323 239.082C345.29 239.082 345.261 239.1 345.251 239.118C339.379 241.265 333.87 244.014 330.863 248.264C330.844 248.285 330.807 248.323 330.8 248.336C328.87 250.89 328.939 255.127 330.252 259.001C330.252 259.037 330.252 259.073 330.266 259.109C333.593 268.041 338.62 276.383 344.591 284.095C355.303 297.894 369.671 309.247 386.267 314.53C386.329 314.551 386.546 314.551 386.594 314.566C389.049 315.459 393.001 315.806 397.001 318.273V318.258C397.001 318.273 396.845 318.294 396.881 318.294C396.989 318.367 396.997 318.389 397.106 318.476L396.998 318.535C400.219 320.486 401.002 324.824 399.002 327.973V327.98H399Z" fill="#FFFAFA"/>
</svg>
